<mxfile host="app.diagrams.net" modified="2020-04-02T19:06:47.573Z" agent="5.0 (X11; Fedora; Linux x86_64) AppleWebKit/537.36 (KHTML, like Gecko) Chrome/80.0.3987.149 Safari/537.36" etag="5mPdvk0ZLSsTUz0WGHg5" version="12.9.6" type="github">
  <diagram name="Page-1" id="e7e014a7-5840-1c2e-5031-d8a46d1fe8dd">
    <mxGraphModel dx="261" dy="241" grid="1" gridSize="10" guides="1" tooltips="1" connect="1" arrows="1" fold="1" page="1" pageScale="1" pageWidth="1169" pageHeight="826" background="#ffffff" math="0" shadow="0">
      <root>
        <mxCell id="0" />
        <mxCell id="1" parent="0" />
        <mxCell id="2" value="Пользователь" style="swimlane;whiteSpace=wrap" parent="1" vertex="1">
          <mxGeometry x="40" y="120" width="360" height="1010" as="geometry" />
        </mxCell>
        <mxCell id="5" value="" style="ellipse;shape=startState;fillColor=#000000;strokeColor=#000000;strokeWidth=8;" parent="2" vertex="1">
          <mxGeometry x="165" y="40" width="30" height="30" as="geometry" />
        </mxCell>
        <mxCell id="6" value="" style="edgeStyle=elbowEdgeStyle;elbow=horizontal;verticalAlign=bottom;endArrow=open;endSize=8;strokeColor=#000000;endFill=1;rounded=0;exitX=0.5;exitY=1;exitDx=0;exitDy=0;entryX=0.5;entryY=0;entryDx=0;entryDy=0;" parent="2" source="5" target="7" edge="1">
          <mxGeometry x="180" y="48" as="geometry">
            <mxPoint x="195" y="118" as="targetPoint" />
          </mxGeometry>
        </mxCell>
        <mxCell id="7" value="зайти на сайт" style="rounded=1;whiteSpace=wrap;html=1;fontFamily=Helvetica;fontSize=12;fontColor=#000000;align=center;strokeColor=#000000;fillColor=#ffffff;" parent="2" vertex="1">
          <mxGeometry x="120" y="118" width="120" height="40" as="geometry" />
        </mxCell>
        <mxCell id="OqD31-0FcYBVBra8Ghr_-73" value="" style="edgeStyle=orthogonalEdgeStyle;rounded=0;orthogonalLoop=1;jettySize=auto;html=1;strokeColor=#000000;entryX=0.5;entryY=0;entryDx=0;entryDy=0;exitX=1;exitY=0.5;exitDx=0;exitDy=0;" edge="1" parent="2" source="OqD31-0FcYBVBra8Ghr_-70" target="OqD31-0FcYBVBra8Ghr_-76">
          <mxGeometry relative="1" as="geometry">
            <mxPoint x="289.9999999999999" y="214.9999999999999" as="targetPoint" />
            <Array as="points">
              <mxPoint x="260" y="215" />
            </Array>
          </mxGeometry>
        </mxCell>
        <mxCell id="OqD31-0FcYBVBra8Ghr_-75" value="" style="edgeStyle=orthogonalEdgeStyle;rounded=0;orthogonalLoop=1;jettySize=auto;html=1;strokeColor=#000000;entryX=0.5;entryY=0;entryDx=0;entryDy=0;exitX=0;exitY=0.5;exitDx=0;exitDy=0;" edge="1" parent="2" source="OqD31-0FcYBVBra8Ghr_-70" target="OqD31-0FcYBVBra8Ghr_-77">
          <mxGeometry relative="1" as="geometry">
            <mxPoint x="70" y="214.9999999999999" as="targetPoint" />
            <Array as="points">
              <mxPoint x="100" y="215" />
            </Array>
          </mxGeometry>
        </mxCell>
        <mxCell id="OqD31-0FcYBVBra8Ghr_-70" value="" style="rhombus;whiteSpace=wrap;html=1;strokeColor=#000000;strokeWidth=1;fillColor=#FFFFFF;" vertex="1" parent="2">
          <mxGeometry x="150" y="200" width="60" height="30" as="geometry" />
        </mxCell>
        <mxCell id="OqD31-0FcYBVBra8Ghr_-71" value="" style="edgeStyle=orthogonalEdgeStyle;rounded=0;orthogonalLoop=1;jettySize=auto;html=1;strokeColor=#000000;" edge="1" parent="2" source="7" target="OqD31-0FcYBVBra8Ghr_-70">
          <mxGeometry relative="1" as="geometry">
            <mxPoint x="220.0000000000001" y="278" as="sourcePoint" />
            <mxPoint x="220.0000000000001" y="319.9999999999999" as="targetPoint" />
          </mxGeometry>
        </mxCell>
        <mxCell id="OqD31-0FcYBVBra8Ghr_-79" value="" style="edgeStyle=orthogonalEdgeStyle;rounded=0;orthogonalLoop=1;jettySize=auto;html=1;strokeColor=#000000;exitX=0.75;exitY=1;exitDx=0;exitDy=0;" edge="1" parent="2" source="OqD31-0FcYBVBra8Ghr_-76" target="OqD31-0FcYBVBra8Ghr_-78">
          <mxGeometry relative="1" as="geometry" />
        </mxCell>
        <mxCell id="OqD31-0FcYBVBra8Ghr_-81" value="" style="edgeStyle=orthogonalEdgeStyle;rounded=0;orthogonalLoop=1;jettySize=auto;html=1;strokeColor=#000000;exitX=0.25;exitY=1;exitDx=0;exitDy=0;entryX=0.25;entryY=0;entryDx=0;entryDy=0;" edge="1" parent="2" source="OqD31-0FcYBVBra8Ghr_-76" target="OqD31-0FcYBVBra8Ghr_-80">
          <mxGeometry relative="1" as="geometry">
            <Array as="points" />
          </mxGeometry>
        </mxCell>
        <mxCell id="OqD31-0FcYBVBra8Ghr_-76" value="авторизироваться" style="rounded=1;whiteSpace=wrap;html=1;fontFamily=Helvetica;fontSize=12;fontColor=#000000;align=center;strokeColor=#000000;fillColor=#ffffff;" vertex="1" parent="2">
          <mxGeometry x="200" y="240" width="120" height="40" as="geometry" />
        </mxCell>
        <mxCell id="OqD31-0FcYBVBra8Ghr_-88" style="edgeStyle=orthogonalEdgeStyle;rounded=0;orthogonalLoop=1;jettySize=auto;html=1;exitX=0.25;exitY=1;exitDx=0;exitDy=0;entryX=0;entryY=0.75;entryDx=0;entryDy=0;entryPerimeter=0;strokeColor=#000000;" edge="1" parent="2" source="OqD31-0FcYBVBra8Ghr_-80" target="OqD31-0FcYBVBra8Ghr_-86">
          <mxGeometry relative="1" as="geometry" />
        </mxCell>
        <mxCell id="OqD31-0FcYBVBra8Ghr_-80" value="авторизироваться" style="rounded=1;whiteSpace=wrap;html=1;fontFamily=Helvetica;fontSize=12;fontColor=#000000;align=center;strokeColor=#000000;fillColor=#ffffff;" vertex="1" parent="2">
          <mxGeometry x="200" y="400" width="120" height="40" as="geometry" />
        </mxCell>
        <mxCell id="OqD31-0FcYBVBra8Ghr_-83" value="" style="edgeStyle=orthogonalEdgeStyle;rounded=0;orthogonalLoop=1;jettySize=auto;html=1;strokeColor=#000000;exitX=0.5;exitY=1;exitDx=0;exitDy=0;entryX=0;entryY=0.25;entryDx=0;entryDy=0;entryPerimeter=0;" edge="1" parent="2" source="OqD31-0FcYBVBra8Ghr_-78" target="OqD31-0FcYBVBra8Ghr_-86">
          <mxGeometry relative="1" as="geometry">
            <mxPoint x="290" y="470" as="targetPoint" />
            <Array as="points">
              <mxPoint x="280" y="380" />
              <mxPoint x="340" y="380" />
              <mxPoint x="340" y="460" />
              <mxPoint x="290" y="460" />
            </Array>
          </mxGeometry>
        </mxCell>
        <mxCell id="OqD31-0FcYBVBra8Ghr_-78" value="войти на сайт" style="rounded=1;whiteSpace=wrap;html=1;fontFamily=Helvetica;fontSize=12;fontColor=#000000;align=center;strokeColor=#000000;fillColor=#ffffff;" vertex="1" parent="2">
          <mxGeometry x="240" y="320" width="80" height="40" as="geometry" />
        </mxCell>
        <mxCell id="OqD31-0FcYBVBra8Ghr_-85" value="" style="edgeStyle=orthogonalEdgeStyle;rounded=0;orthogonalLoop=1;jettySize=auto;html=1;strokeColor=#000000;" edge="1" parent="2" target="OqD31-0FcYBVBra8Ghr_-84">
          <mxGeometry relative="1" as="geometry">
            <mxPoint x="259.9999999999999" y="520" as="sourcePoint" />
          </mxGeometry>
        </mxCell>
        <mxCell id="OqD31-0FcYBVBra8Ghr_-84" value="войти на сайт" style="rounded=1;whiteSpace=wrap;html=1;fontFamily=Helvetica;fontSize=12;fontColor=#000000;align=center;strokeColor=#000000;fillColor=#ffffff;" vertex="1" parent="2">
          <mxGeometry x="200" y="600" width="120" height="40" as="geometry" />
        </mxCell>
        <mxCell id="OqD31-0FcYBVBra8Ghr_-77" value="начать покупки" style="rounded=1;whiteSpace=wrap;html=1;fontFamily=Helvetica;fontSize=12;fontColor=#000000;align=center;strokeColor=#000000;fillColor=#ffffff;" vertex="1" parent="2">
          <mxGeometry x="40" y="240" width="120" height="40" as="geometry" />
        </mxCell>
        <mxCell id="OqD31-0FcYBVBra8Ghr_-86" value="" style="html=1;points=[];perimeter=orthogonalPerimeter;strokeColor=#000000;strokeWidth=1;fillColor=#000000;rotation=90;" vertex="1" parent="2">
          <mxGeometry x="255" y="425" width="10" height="120" as="geometry" />
        </mxCell>
        <mxCell id="3" value="Сервер" style="swimlane;whiteSpace=wrap" parent="1" vertex="1">
          <mxGeometry x="400" y="120" width="200" height="570" as="geometry" />
        </mxCell>
        <mxCell id="4" value="Администратор" style="swimlane;whiteSpace=wrap" parent="1" vertex="1">
          <mxGeometry x="600" y="120" width="200" height="570" as="geometry" />
        </mxCell>
      </root>
    </mxGraphModel>
  </diagram>
</mxfile>
